<?xml version="1.0" encoding="utf-8"?>
<!-- Generator: Adobe Illustrator 19.0.0, SVG Export Plug-In . SVG Version: 6.00 Build 0)  -->
<svg version="1.1" id="Layer_1" xmlns="http://www.w3.org/2000/svg" xmlns:xlink="http://www.w3.org/1999/xlink" x="0px" y="0px"
	 viewBox="0 0 960 960" style="enable-background:new 0 0 960 960;" xml:space="preserve">
<style type="text/css">
	.st0{fill:#FFFFFF;}
	.st1{fill:#FED136;}
	.st2{fill:none;}
</style>
<g>
	<path class="st0" d="M92,81c266.7,0,533.3,0,800,0c0,266.7,0,533.3,0,800c-266.7,0-533.3,0-800,0C92,614.3,92,347.7,92,81z
		 M883.9,480.5c0.3,0,0.6,0,0.9,0c-1-17.4-1.3-34.8-3-52.1c-1.5-14.8-3.9-29.6-7.3-44c-7.7-32.6-19.6-63.6-35.7-93.1
		c-14.1-25.8-30.6-49.8-50.6-71.2c-16.5-17.7-33.5-35-52.5-50.1c-19.2-15.3-39.5-28.7-61.1-40c-28.8-15-59-26.8-91-33
		c-19.1-3.7-38.4-8-57.7-8.5c-33.6-0.9-67.4-2.9-100.7,3.6c-16.6,3.3-33.3,6.5-49.7,11c-28.8,7.9-56,20.1-81.9,35.1
		c-22.7,13.1-43.8,28.4-63,46.1c-13.7,12.6-26.5,26.2-39,40c-9.2,10.2-17.6,21.2-25.6,32.4c-16.7,23.1-29.8,48.1-40.4,74.5
		c-14.9,36.9-24.3,75.2-26,114.8c-1.2,28.6-2.4,57.5,1.7,86.1c2.1,14.9,4,29.9,7.5,44.5c7.7,32.7,19.7,63.9,36,93.5
		c14,25.6,30.5,49.5,50.3,70.7c16.5,17.7,33.5,35,52.5,50.1c19.2,15.3,39.5,28.7,61.1,40c28.8,15,59.1,26.2,90.9,33.2
		c23.8,5.2,47.8,8.9,72.3,8.7c28.8-0.2,57.7,1.9,86.2-4c17.9-3.7,35.9-7.1,53.4-12.1c29.9-8.5,57.8-21.6,84.4-37.7
		c20.3-12.3,39.5-26.1,56.6-42.4c22.6-21.4,44.6-43.3,62.5-69.1c16.7-23.9,31.4-48.8,41.7-76c7.4-19.6,13.6-39.8,18.8-60.2
		c5.4-21.2,8-42.9,8.4-64.8C884,497.8,883.9,489.1,883.9,480.5z"/>
	<path class="st1" d="M883.9,480.5c0,8.7,0.1,17.3,0,26c-0.4,21.9-3,43.7-8.4,64.8c-5.2,20.3-11.4,40.5-18.8,60.2
		c-10.3,27.2-25,52.2-41.7,76c-18,25.7-40,47.7-62.5,69.1c-17.1,16.2-36.3,30.1-56.6,42.4c-26.6,16.1-54.6,29.2-84.4,37.7
		c-17.5,5-35.5,8.5-53.4,12.1c-28.5,5.9-57.4,3.8-86.2,4c-24.4,0.2-48.4-3.4-72.3-8.7c-31.8-7-62.1-18.2-90.9-33.2
		c-21.7-11.3-42-24.7-61.1-40c-19-15.2-36.1-32.4-52.5-50.1c-19.8-21.3-36.3-45.2-50.3-70.7c-16.2-29.6-28.2-60.8-36-93.5
		c-3.5-14.6-5.4-29.6-7.5-44.5c-4-28.6-2.9-57.5-1.7-86.1c1.7-39.6,11.1-77.9,26-114.8c10.7-26.4,23.8-51.4,40.4-74.5
		c8.1-11.2,16.4-22.2,25.6-32.4c12.5-13.8,25.3-27.4,39-40c19.2-17.7,40.3-33,63-46.1c25.9-15,53-27.2,81.9-35.1
		c16.3-4.5,33-7.7,49.7-11c33.3-6.6,67.1-4.5,100.7-3.6c19.3,0.5,38.6,4.8,57.7,8.5c32,6.1,62.1,17.9,91,33
		c21.7,11.3,42,24.7,61.1,40c19,15.2,36.1,32.4,52.5,50.1c19.9,21.4,36.5,45.4,50.6,71.2c16.1,29.5,28,60.5,35.7,93.1
		c3.4,14.4,5.8,29.2,7.3,44c1.8,17.3,2.1,34.7,3,52.1C884.5,480.5,884.2,480.5,883.9,480.5z M863.4,465.4
		c-4.5-89.1-35.8-168.5-96.8-235c-73.6-80.3-166.3-121.5-275-122c-95.2-0.4-179.6,32.3-250,96.6c-80.5,73.6-121.9,166.5-122.2,275.4
		c-0.3,96.1,32.9,181,98.4,251.8c73.6,79.4,165.8,120.3,273.7,120.3c104.5,0,194.8-38.5,267.7-114.3
		C832,662.5,865.5,571.2,863.4,465.4z"/>
	<path class="st2" d="M863.4,465.4c2.1,105.8-31.4,197-104.2,272.7C686.4,814,596.1,852.5,491.6,852.5
		c-107.9,0-200.1-40.9-273.7-120.3c-65.5-70.7-98.8-155.7-98.4-251.8c0.4-108.9,41.7-201.7,122.2-275.4
		c70.4-64.4,154.8-97.1,250-96.6c108.7,0.5,201.4,41.7,275,122C827.6,296.9,859,376.4,863.4,465.4z M682.6,266.9
		c9.3,0.5,17.4-2.5,24.7-8.1c11.4-8.8,17.1-20.8,16.4-34.8c-0.7-12.9-6.6-23.8-17.7-31.5c-15.8-11.1-35.8-9.8-50.5,2.7
		c-8.8,7.5-13.1,17.3-14.4,28.7c-0.1,1.3-1.6,2.7-2.8,3.5c-4.6,3.1-9.3,6-14,9c-23.6,15.3-46.2,31.7-67,50.8
		c-16.5,15.1-30.9,31.7-40.6,52c-7.4,15.4-9.4,31.4-4.9,48.3c4.2,15.7,13.8,27.6,24.4,39c9.4,10,20.2,19.1,28.4,30
		c8.9,11.8,8.9,19.3,1.7,31.2c-7.3,12-17.5,21.3-28.2,30c-13.1,10.7-26.7,20.8-39.5,31.7c-8.5,7.3-11.6,16.5-4,26.3
		c6.1,7.9,16.4,9.8,25.8,3.3c11-7.6,21.7-15.8,32.2-24.2c16.2-13,32.4-26.3,43.8-44c4.9-7.5,8.9-16,11.2-24.7c1.8-6.5,0.7-14,0.3-21
		c-0.6-11.9-5.5-22.5-13-31.3c-11.5-13.4-24.2-25.8-36.3-38.7c-1.8-1.9-3.7-3.9-5-6.1c-4.5-7.3-7.9-14.7-5.9-24
		c3-14.1,10.7-25.5,20.3-35.3c12.1-12.4,25-24.1,38.7-34.7c15.6-12.1,32.4-22.8,48.7-33.9c1.3-0.8,3.9-0.9,5.2-0.2
		C667.4,264.9,674.6,267.4,682.6,266.9z M259.5,726.2c0.8,4.3,1.1,8.8,2.4,13c7.2,23.8,38,37,61.5,20.7
		c10.4-7.2,16.5-17.1,17.6-29.9c0.1-1.6,1.5-3.5,2.9-4.4c20.7-13.5,41.9-26.4,60.7-42.6c12.8-11.1,26-21.9,37.4-34.3
		c14.6-15.8,26.7-33.4,30.5-55.5c1.7-9.7,0.9-18.9-1.3-28.2c-3.3-13.8-11.4-25-21-35.1c-10.3-10.8-21.3-20.9-30.9-32.3
		c-9-10.7-11-21.6-1.4-35c13.7-19,32.5-32.8,50.2-47.6c6.2-5.1,13-9.5,19-14.8c6.4-5.7,6.8-16.5,1.5-22.9c-6.7-8.2-17.2-11-24.5-5.4
		c-18.6,14.4-37.3,28.7-55,44.2c-9.2,8.1-16.6,18.3-24.3,28c-6.3,8.1-9.6,17.8-10.6,27.8c-2,21.4,6,39.6,20.4,55.1
		c10.2,11,21,21.4,31.2,32.4c6.5,7,11.7,15.5,9.9,25.2c-1.4,7.7-4.8,15.4-8.9,22c-14,22.4-34.2,38.8-54.9,54.4
		c-14.2,10.7-29.5,20-44.2,30.1c-2.4,1.7-3.9,1.2-6.5,0.1c-6-2.5-12.2-5.4-18.5-5.8C280.7,683.7,258.8,702.1,259.5,726.2z
		 M764,477.3c-0.4,0.5-0.7,1-1.1,1.3c-21,14.2-42,28.4-63.1,42.5c-15.9,10.7-31.8,21.3-47.8,31.9c-4.1,2.7-6,6.1-6.1,11.1
		c-0.1,11.3,4,21.5,8,31.7c1.3,3.4,3.2,6.8,5.4,9.8c3.9,5.1,6.3,5.3,11.6,1.7c17.8-12.1,35.8-24.1,53.5-36.5
		c24.5-17.2,48.9-34.7,73.2-52.2c9.3-6.7,19-13,27.4-20.7c16.9-15.3,10-38.7-4.4-47.8c-9.4-5.9-18.5-12.3-27.7-18.6
		c-17.1-11.8-34.2-23.6-51.3-35.4c-13.1-9-26.1-18-39.3-26.9c-10.2-6.8-20.6-13.4-30.9-20c-5.4-3.4-9.8-2.8-12.9,1.8
		c-1.4,2.1-2.8,4.5-3.5,7c-2.6,9.4-4.9,18.9-7.2,28.4c-2.2,9.2-0.2,14.3,7.5,19.4c12.2,8,24.4,15.9,36.6,23.9
		c12,7.9,24.1,15.7,36.1,23.6C740.1,461.4,752,469.4,764,477.3z M221.2,476.9c3.2-1.9,5.6-3.2,7.9-4.7
		c15.1-10.3,30.2-20.8,45.4-31.1c20.1-13.5,40.3-26.8,60.5-40.2c4.2-2.8,6.8-8.8,5.8-13.2c-1.3-5.4-2-11-4-16.1
		c-2.9-7.8-6.3-15.4-10.1-22.8c-1.6-3.3-5.1-5-8.8-2.9c-5.4,3.1-10.7,6.3-15.8,9.8c-20.3,14.1-40.5,28.3-60.7,42.6
		c-25.5,18.1-51,36.1-76.3,54.5c-11.5,8.3-16.3,22.9-11.7,35.6c1.7,4.8,4.4,10.3,8.3,13c26.7,18.9,53.9,37.1,80.9,55.6
		c11.9,8.1,23.7,16.4,35.7,24.4c12.7,8.4,25.7,16.3,38.3,24.7c4.2,2.8,7.1,0.9,10.1-1.5c1.4-1.2,2.7-3.1,3.2-4.9
		c3.2-10.9,6.6-21.8,8.9-32.9c1.4-6.9,0.1-13.9-7.3-17.9c-3.1-1.7-6-3.9-9-5.9c-18-11.9-36-23.9-54-35.7
		C252.9,497.2,237.4,487.3,221.2,476.9z"/>
	<path class="st1" d="M682.6,266.9c-8,0.5-15.1-2-22-5.8c-1.3-0.7-4-0.7-5.2,0.2c-16.4,11.1-33.1,21.7-48.7,33.9
		c-13.7,10.6-26.6,22.4-38.7,34.7c-9.6,9.8-17.3,21.2-20.3,35.3c-2,9.3,1.4,16.6,5.9,24c1.4,2.2,3.2,4.2,5,6.1
		c12.1,12.9,24.8,25.2,36.3,38.7c7.5,8.7,12.4,19.4,13,31.3c0.4,7,1.5,14.5-0.3,21c-2.4,8.6-6.4,17.1-11.2,24.7
		c-11.4,17.7-27.6,31-43.8,44c-10.5,8.4-21.1,16.6-32.2,24.2c-9.4,6.5-19.7,4.5-25.8-3.3c-7.6-9.7-4.6-19,4-26.3
		c12.9-11,26.4-21.1,39.5-31.7c10.7-8.7,20.9-18,28.2-30c7.2-11.9,7.2-19.4-1.7-31.2c-8.2-10.9-19-19.9-28.4-30
		c-10.7-11.4-20.3-23.3-24.4-39c-4.5-16.9-2.5-32.9,4.9-48.3c9.7-20.2,24.1-36.9,40.6-52c20.8-19,43.4-35.5,67-50.8
		c4.7-3,9.4-5.9,14-9c1.2-0.8,2.6-2.2,2.8-3.5c1.3-11.4,5.6-21.2,14.4-28.7c14.7-12.5,34.7-13.7,50.5-2.7c11,7.7,17,18.6,17.7,31.5
		c0.8,14-4.9,26-16.4,34.8C700,264.4,691.8,267.4,682.6,266.9z"/>
	<path class="st1" d="M259.5,726.2c-0.7-24.1,21.2-42.5,43.3-40.9c6.3,0.5,12.5,3.3,18.5,5.8c2.5,1.1,4,1.6,6.5-0.1
		c14.7-10.1,30-19.4,44.2-30.1c20.7-15.6,40.9-32,54.9-54.4c4.2-6.6,7.5-14.4,8.9-22c1.8-9.8-3.4-18.2-9.9-25.2
		c-10.2-11-21-21.4-31.2-32.4c-14.4-15.5-22.4-33.6-20.4-55.1c0.9-10,4.3-19.8,10.6-27.8c7.6-9.7,15-20,24.3-28
		c17.7-15.5,36.4-29.8,55-44.2c7.2-5.6,17.7-2.8,24.5,5.4c5.3,6.5,4.9,17.2-1.5,22.9c-6,5.3-12.9,9.6-19,14.8
		c-17.7,14.8-36.5,28.6-50.2,47.6c-9.6,13.4-7.6,24.3,1.4,35c9.5,11.4,20.6,21.5,30.9,32.3c9.6,10.1,17.7,21.2,21,35.1
		c2.2,9.3,3,18.5,1.3,28.2c-3.8,22.1-15.9,39.7-30.5,55.5c-11.4,12.4-24.6,23.2-37.4,34.3c-18.8,16.2-39.9,29.2-60.7,42.6
		c-1.4,0.9-2.8,2.8-2.9,4.4c-1.1,12.8-7.2,22.7-17.6,29.9c-23.5,16.4-54.3,3.1-61.5-20.7C260.6,735,260.3,730.5,259.5,726.2z"/>
	<path class="st1" d="M764,477.3c-12-8-23.9-16-35.9-23.9c-12-7.9-24.1-15.7-36.1-23.6c-12.2-8-24.4-15.9-36.6-23.9
		c-7.7-5.1-9.7-10.2-7.5-19.4c2.3-9.5,4.6-19,7.2-28.4c0.7-2.5,2-4.8,3.5-7c3.1-4.7,7.5-5.3,12.9-1.8c10.4,6.6,20.7,13.1,30.9,20
		c13.2,8.8,26.2,17.9,39.3,26.9c17.1,11.8,34.2,23.7,51.3,35.4c9.2,6.3,18.3,12.7,27.7,18.6c14.4,9,21.3,32.4,4.4,47.8
		c-8.4,7.7-18.1,14-27.4,20.7c-24.3,17.5-48.7,35-73.2,52.2c-17.7,12.4-35.6,24.4-53.5,36.5c-5.2,3.6-7.7,3.4-11.6-1.7
		c-2.2-2.9-4.1-6.3-5.4-9.8c-3.9-10.2-8-20.4-8-31.7c0-5,2-8.4,6.1-11.1c16-10.6,31.9-21.2,47.8-31.9c21-14.1,42-28.3,63.1-42.5
		C763.4,478.4,763.6,477.9,764,477.3z"/>
	<path class="st1" d="M221.2,476.9c16.2,10.4,31.7,20.3,47.2,30.4c18.1,11.8,36,23.8,54,35.7c3,2,5.9,4.2,9,5.9
		c7.4,4,8.7,10.9,7.3,17.9c-2.3,11.1-5.7,22-8.9,32.9c-0.5,1.8-1.8,3.7-3.2,4.9c-2.9,2.4-5.9,4.3-10.1,1.5
		c-12.7-8.4-25.7-16.3-38.3-24.7c-12-7.9-23.8-16.2-35.7-24.4c-27-18.5-54.2-36.7-80.9-55.6c-3.9-2.8-6.6-8.3-8.3-13
		c-4.6-12.7,0.2-27.3,11.7-35.6c25.3-18.3,50.8-36.4,76.3-54.5c20.2-14.3,40.4-28.5,60.7-42.6c5.1-3.5,10.4-6.7,15.8-9.8
		c3.8-2.2,7.2-0.4,8.8,2.9c3.7,7.4,7.2,15,10.1,22.8c1.9,5.2,2.7,10.7,4,16.1c1,4.4-1.5,10.4-5.8,13.2
		c-20.2,13.4-40.4,26.7-60.5,40.2c-15.2,10.2-30.2,20.7-45.4,31.1C226.8,473.7,224.4,475,221.2,476.9z"/>
</g>
</svg>
